<svg width="125" height="50" viewBox="0 0 26 5" fill="none" xmlns="http://www.w3.org/2000/svg">
<path d="M17.5442 0.0164413C16.764 0.0164413 16.0682 0.38071 15.6159 0.949554C15.4824 0.764153 15.3191 0.569407 15.1408 0.432317C14.7665 0.130257 14.2811 0.0383374 13.7625 0.0232408C12.8844 -0.00231647 12.1821 0.510446 11.8587 1.08697C11.5855 0.497777 11.3404 0.190105 10.3899 0.13899H8.0864L8.08692 1.17678C8.08692 1.17678 8.19647 1.2146 8.2335 1.25854C8.2644 1.29519 8.28499 1.39642 8.28499 1.39642L8.27958 3.70635C8.27958 3.70635 8.21934 3.65913 8.19532 3.62887C8.15062 3.57256 8.08721 3.43943 8.08721 3.43943L6.90699 0.137883L5.41049 0.13899L4.11017 3.81356V3.02704H3.17438C3.10069 3.24666 2.8938 3.395 2.64425 3.395C2.51274 3.395 2.37213 3.36147 2.2582 3.28747C2.10973 3.19104 1.99878 3.07651 1.90741 2.87302C1.83552 2.68472 1.78051 2.45415 1.77414 2.25015C1.79605 1.84672 1.90944 1.70292 2.11704 1.53652C2.16306 1.49964 2.29164 1.47014 2.32871 1.46995C2.41026 1.46954 2.47824 1.52301 2.51508 1.60183C2.56866 1.71647 2.49023 1.85534 2.41268 1.95414L3.16926 2.51755L4.33779 1.19592C3.93013 0.493589 3.1852 0.023399 2.33383 0.023399C1.04487 0.023399 0 1.10114 0 2.43058C0 3.76001 1.01143 4.76538 2.33383 4.87381L2.50103 4.88109H4.27986V4.88014H8.42133V4.87982L9.97839 4.87745V4.87476H10.222V3.88583C10.222 3.88583 10.0915 3.85642 10.0378 3.81689C9.98139 3.77538 9.97605 3.70999 9.97605 3.70999C9.97504 3.68477 9.97973 3.66545 9.99199 3.64896C10.004 3.63279 10.0321 3.62179 10.0428 3.61939C10.2035 3.58302 10.3675 3.53329 10.5316 3.46948C10.9696 3.29923 11.3381 3.05702 11.5997 2.78937C11.7747 3.90738 12.6837 4.72321 13.7825 4.85942C13.8543 4.86832 13.9161 4.87505 13.9832 4.87761C14.0011 4.87829 14.0368 4.87682 14.0368 4.87682H15.5909L15.5862 4.05012C15.9903 4.53511 16.7778 5 17.5726 5C18.222 5 18.8046 4.69261 19.2152 4.31251L19.2118 4.88425H21.1743L21.1843 4.00953L21.696 4.01676V4.00712L22.3825 4.0136V4.88109H24.4755V3.73166C24.4755 3.73166 24.3861 3.72546 24.3512 3.69908C24.3039 3.66341 24.2549 3.54364 24.2549 3.54364L23.9607 1.43185C23.9607 1.43185 23.9696 1.29057 24.0075 1.23782C24.0388 1.19442 24.1413 1.15828 24.1413 1.15828V0.138993H23.954H23.653H22.0548V0.16793L21.9076 0.702877L21.696 0.164451V0.138993H21.686L21.6803 0.124603L21.6799 0.138993H19.6665V1.20889L19.529 1.00648C19.1513 0.411267 18.4884 0.0164413 17.7334 0.0164413C17.7026 0.0164413 17.672 0.0170394 17.6415 0.0183389C17.6092 0.0170792 17.5768 0.0164413 17.5442 0.0164413ZM4.08427 4.02261L4.08413 4.03305H4.07535C4.07835 4.02958 4.0813 4.02609 4.08428 4.02261H4.08427Z" fill="#0C4DA2"/>
<path d="M2.33227 0.475693C1.26974 0.482921 0.401932 1.31954 0.401932 2.41397C0.401932 3.50839 1.35991 4.44848 2.51951 4.42018L3.64632 4.42361V3.46469H3.4335C3.36663 3.64549 3.05434 3.82234 2.82791 3.82234C2.70859 3.82234 2.4082 3.80481 2.29708 3.76274C2.10089 3.68846 1.82096 3.58184 1.57756 3.13963C1.51233 2.98461 1.32867 2.60686 1.3697 2.05581C1.38958 1.72369 1.58474 1.3091 1.93494 1.12135C2.08764 1.03948 2.24137 1.02605 2.51128 1.05253C2.70506 1.07154 2.89761 1.21882 2.96483 1.39559C3.01682 1.5323 3.00188 1.6989 2.94068 1.79379C2.93631 1.80056 2.93622 1.80656 2.93712 1.81302C2.93781 1.81794 2.94371 1.82614 2.94371 1.82614L3.05037 1.9162C3.05037 1.9162 3.08073 1.93901 3.1162 1.93799C3.1368 1.9374 3.17362 1.91324 3.17362 1.91324L3.78274 1.22227C3.40616 0.673011 2.73695 0.475693 2.33227 0.475693V0.475693Z" fill="#FFCB08"/>
<path d="M17.5542 0.457146C16.4277 0.457146 15.5145 1.37302 15.5145 2.50285C15.5145 3.63267 16.4277 4.54854 17.5542 4.54854C18.6806 4.54854 19.5938 3.63267 19.5938 2.50285C19.5938 1.37302 18.6806 0.457146 17.5542 0.457146V0.457146ZM17.5675 1.09314C18.1474 1.09314 18.4581 1.54168 18.5841 2.07633C18.6202 2.22937 18.6055 2.73823 18.5841 2.90767C18.5185 3.42437 18.1278 3.9279 17.5609 3.9124C17.0085 3.89729 16.6389 3.61926 16.5244 2.87153C16.4909 2.6528 16.4903 2.39004 16.5176 2.1703C16.5967 1.53316 16.9877 1.09314 17.5675 1.09314H17.5675Z" fill="#FFCB08"/>
<path d="M5.69049 0.584122C5.69049 0.584122 4.79481 3.20396 4.63431 3.68106C4.47381 4.15815 4.29332 4.14374 4.29332 4.14374L4.30663 4.43279L5.38914 4.43248L5.39002 4.15481C5.39002 4.15481 5.32056 4.15095 5.26963 4.10041C5.17084 4.00239 5.23335 3.80519 5.23335 3.80519L5.48364 3.11306L6.59526 3.11559C6.59526 3.11559 6.81194 3.7004 6.86501 3.89342C6.93425 4.14526 6.71799 4.14975 6.71799 4.14975V4.432L8.08693 4.43121L8.08605 4.15212C8.08605 4.15212 8.00453 4.13868 7.91782 4.05692C7.81947 3.96419 7.75252 3.77293 7.75252 3.77293L6.63139 0.58681L5.69049 0.584122ZM6.01188 1.38962L6.383 2.50648L5.66416 2.50996L6.01188 1.38962Z" fill="#FFCB08"/>
<path d="M8.52433 0.580017L8.51907 0.901175C8.51907 0.901175 8.60608 0.928125 8.68934 1.02799C8.73349 1.08094 8.70617 1.75301 8.70617 1.75301L8.7047 3.90434C8.7047 3.90434 8.73306 3.98913 8.63785 4.07432C8.60191 4.10648 8.57008 4.14057 8.51453 4.1458L8.50795 4.43201L9.77668 4.43533L9.77975 4.14422C9.77975 4.14422 9.73487 4.12508 9.66448 4.05646C9.62475 4.01772 9.60027 3.96198 9.60084 3.90639C9.60191 3.71205 9.60612 3.52531 9.60523 3.33555C10.0497 3.21984 10.4333 3.02364 10.5829 2.96411C11.145 2.72164 11.5812 2.33667 11.5557 1.64991C11.5508 1.16335 11.3225 0.764543 10.8334 0.674419C10.6105 0.604787 10.5081 0.592619 10.4202 0.587291L8.52433 0.580017ZM9.97533 1.12546C10.1122 1.12261 10.2734 1.15651 10.3975 1.22407C10.5521 1.33505 10.6462 1.45002 10.6462 1.69324C10.6526 1.80758 10.6222 1.90589 10.5713 2.00586C10.5183 2.10144 10.3581 2.28495 10.2569 2.38993C9.96101 2.61855 9.85514 2.68557 9.62011 2.80252L9.61635 1.17268C9.7416 1.14714 9.85395 1.12633 9.97533 1.12546V1.12546Z" fill="#FFCB08"/>
<path d="M13.8877 0.478249C12.8252 0.485477 11.9574 1.3221 11.9574 2.41652C11.9574 3.51095 12.9153 4.45104 14.0749 4.42274L15.2018 4.42617V3.46725H14.9889C14.9221 3.64805 14.6098 3.8249 14.3833 3.8249C14.264 3.8249 13.9636 3.80736 13.8525 3.76529C13.6563 3.69102 13.3764 3.58439 13.133 3.14219C13.0678 2.98717 12.8841 2.60941 12.9251 2.05836C12.945 1.72624 13.1402 1.31166 13.4904 1.12391C13.6431 1.04204 13.7968 1.02861 14.0667 1.05508C14.2605 1.07409 14.453 1.22138 14.5203 1.39814C14.5723 1.53486 14.5573 1.70145 14.4961 1.79635C14.4917 1.80312 14.4917 1.80912 14.4926 1.81558C14.4932 1.8205 14.4991 1.82869 14.4991 1.82869L14.6058 1.91876C14.6058 1.91876 14.6362 1.94157 14.6716 1.94054C14.6922 1.93995 14.7291 1.9158 14.7291 1.9158L15.3382 1.22482C14.9616 0.675567 14.2924 0.478249 13.8877 0.478249Z" fill="#FFCB08"/>
<path d="M20.1036 0.587601L20.1048 0.863534C20.1048 0.863534 20.2164 0.896015 20.2607 0.933901C20.3114 0.977213 20.2986 1.05408 20.2986 1.05408C20.2986 1.05408 19.8937 3.77399 19.8849 3.82448C19.8755 3.87879 19.8621 4.00567 19.7915 4.07622C19.7212 4.14636 19.6402 4.1605 19.6402 4.1605L19.639 4.43264H20.7727V4.17837C20.7727 4.17837 20.6805 4.17065 20.619 4.1042C20.5575 4.03776 20.5753 3.85515 20.5753 3.85515L20.8542 1.80028L21.4217 3.56878L22.1129 3.57906L22.6743 1.67457L22.9876 3.86527C22.9876 3.86527 23.0254 4.02996 22.9439 4.11448C22.8812 4.17953 22.7903 4.18864 22.7903 4.18864V4.44291H24.1037L24.1025 4.17078C24.1025 4.17078 24.0731 4.18166 23.9985 4.11701C23.9546 4.079 23.9335 3.90946 23.924 3.85515C23.9152 3.80467 23.5614 1.06783 23.5614 1.06783C23.5614 1.06783 23.5552 0.954826 23.6126 0.897057C23.6539 0.855419 23.7385 0.815937 23.7385 0.815937L23.7365 0.590605L22.373 0.588866L21.874 2.14247L21.3981 0.588866L20.1036 0.587601V0.587601Z" fill="#FFCB08"/>
<path d="M25.347 0C24.9863 0 24.6939 0.316046 24.6939 0.705908C24.6939 1.09577 24.9863 1.41182 25.347 1.41182C25.7076 1.41182 26 1.09577 26 0.705908C26 0.316046 25.7076 0 25.347 0V0ZM25.347 0.094904C25.6591 0.094904 25.9122 0.368461 25.9122 0.705908C25.9122 1.04336 25.6591 1.31691 25.347 1.31691C25.0348 1.31691 24.7817 1.04336 24.7817 0.705908C24.7817 0.368461 25.0348 0.094904 25.347 0.094904V0.094904Z" fill="#0C4DA2"/>
<path d="M25.0108 0.279572V1.11528H25.1739V0.825587H25.3905L25.5699 1.11891L25.753 1.11765L25.5342 0.80677C25.624 0.767113 25.6876 0.669299 25.6876 0.554714C25.6876 0.406984 25.5819 0.28684 25.4505 0.283683V0.280204H25.1739V0.279572H25.0108V0.279572ZM25.1739 0.448294L25.4452 0.449875C25.5004 0.459992 25.537 0.466116 25.5355 0.55564C25.5339 0.651439 25.4656 0.664205 25.4452 0.664929L25.1739 0.668408V0.448294Z" fill="#0C4DA2"/>
</svg>
