<svg width="150" height="50" viewBox="0 0 20 5" fill="none" xmlns="http://www.w3.org/2000/svg">
<g clip-path="url(#clip0_1_8)">
<path d="M3.05181 0.0552673C1.47879 0.0552673 0.190142 1.04551 0.067688 2.30395L1.67266 2.84571C1.80865 2.76978 1.97294 2.72529 2.14968 2.72529C2.16552 2.72529 2.1813 2.72584 2.19693 2.72645L2.91067 1.88183C2.91067 1.8778 2.91067 1.87388 2.91067 1.8699C2.91067 1.36151 3.41721 0.947909 4.03997 0.947909C4.66267 0.947909 5.16921 1.36151 5.16921 1.8699C5.16921 2.37828 4.66267 2.79194 4.03997 2.79194C4.03138 2.79194 4.02285 2.79194 4.01432 2.79139L2.99637 3.38438C2.99705 3.39516 2.99739 3.40616 2.99739 3.4171C2.99739 3.79876 2.61716 4.10913 2.14975 4.10913C1.73947 4.10913 1.39641 3.87005 1.3187 3.55344L0.17085 3.16625C0.526232 4.19241 1.68099 4.94474 3.05181 4.94474C4.70566 4.94474 6.04629 3.85016 6.04629 2.50009C6.04629 1.14979 4.70559 0.0552673 3.05181 0.0552673" fill="white"/>
<path d="M1.94418 3.76477L1.57634 3.6407C1.64153 3.7515 1.7543 3.8443 1.90404 3.89525C2.22774 4.00534 2.60092 3.87994 2.73583 3.61544C2.80115 3.48756 2.80156 3.34636 2.73678 3.21814C2.67213 3.08987 2.55015 2.98984 2.39331 2.93646C2.23769 2.88357 2.07096 2.8855 1.92448 2.93065L2.30443 3.05892C2.54318 3.14016 2.65609 3.36399 2.55658 3.55891C2.45728 3.75388 2.18293 3.84606 1.94418 3.76477" fill="white"/>
<path d="M4.79231 1.8699C4.79231 1.53118 4.4548 1.25557 4.03985 1.25557C3.62496 1.25557 3.28738 1.53118 3.28738 1.8699C3.28738 2.20867 3.62496 2.48417 4.03985 2.48417C4.4548 2.48417 4.79231 2.20862 4.79231 1.8699ZM3.47584 1.86885C3.47584 1.61396 3.72894 1.40738 4.04113 1.40738C4.35333 1.40738 4.60643 1.61396 4.60643 1.86885C4.60643 2.12373 4.35333 2.33031 4.04113 2.33031C3.72894 2.33031 3.47584 2.12367 3.47584 1.86885" fill="white"/>
<path d="M9.24426 1.72798L9.04362 2.01591C8.88908 1.92776 8.67964 1.87471 8.49681 1.87471C8.28784 1.87471 8.15855 1.94534 8.15855 2.07184C8.15855 2.22553 8.38823 2.26129 8.7296 2.36132C9.09656 2.46726 9.30749 2.59177 9.30749 2.86616C9.30749 3.24158 8.94588 3.45241 8.42614 3.45241C8.17284 3.45241 7.86728 3.39903 7.63239 3.28236L7.77873 2.96315C7.96956 3.04544 8.19781 3.09424 8.4013 3.09424C8.67558 3.09424 8.80596 3.01162 8.80596 2.88948C8.80596 2.74972 8.60715 2.70772 8.28622 2.62095C7.92048 2.52125 7.66704 2.39044 7.66704 2.08676C7.66704 1.74428 8.003 1.54759 8.48638 1.54759C8.82329 1.54759 9.09405 1.63475 9.24426 1.72798Z" fill="white"/>
<path d="M10.3403 3.42086V1.90996H9.65454V1.57915H11.4964V1.90996H10.8127V3.42086H10.3403Z" fill="white"/>
<path d="M13.3963 2.32396V2.65477H12.4922V3.087H13.5412V3.42086H12.02V1.57915H13.5412V1.90897H12.4922V2.32396H13.3963Z" fill="white"/>
<path d="M14.5956 3.06329L14.4463 3.42091H13.9511L14.7969 1.5792H15.2724L16.1421 3.42086H15.6302L15.4776 3.06323H14.5956V3.06329ZM15.032 2.0185L14.7239 2.75591H15.3464L15.032 2.0185Z" fill="white"/>
<path d="M17.6827 3.36719L17.0754 2.30063V3.42086H16.623V1.57915H17.0744L17.8325 2.9086L18.5637 1.57915H19.019V3.42086H18.5667V2.29102L17.9493 3.36719H17.6827Z" fill="white"/>
<path d="M19.9323 1.81148C19.9323 1.96976 19.787 2.0684 19.6203 2.0684C19.453 2.0684 19.3074 1.96976 19.3074 1.81148C19.3074 1.65325 19.453 1.55527 19.6203 1.55527C19.7871 1.55527 19.9323 1.65325 19.9323 1.81148ZM19.3598 1.81148C19.3598 1.94389 19.4767 2.02707 19.6203 2.02707C19.7634 2.02707 19.8798 1.94389 19.8798 1.81148C19.8798 1.67867 19.7634 1.59677 19.6203 1.59677C19.4771 1.59677 19.3598 1.67967 19.3598 1.81148M19.6246 1.68055C19.7055 1.68055 19.7327 1.71548 19.7327 1.75323C19.7327 1.78782 19.7076 1.81103 19.677 1.82286L19.7495 1.93378H19.6902L19.629 1.83546H19.566V1.93378H19.5166V1.68055H19.6246ZM19.5665 1.79838H19.6216C19.6573 1.79838 19.6783 1.78009 19.6783 1.7571C19.6783 1.73388 19.6632 1.71896 19.6215 1.71896H19.5664V1.79838H19.5665Z" fill="white"/>
</g>
<defs>
<clipPath id="clip0_1_8">
<rect width="20" height="5" fill="white"/>
</clipPath>
</defs>
</svg>
